<svg width="20" height="20" viewBox="0 0 20 20" fill="none" xmlns="http://www.w3.org/2000/svg">
<path fill-rule="evenodd" clip-rule="evenodd" d="M10.4113 0.670898C5.11528 0.670898 0.822266 4.96391 0.822266 10.2599C0.822266 12.0723 1.32569 13.7695 2.20117 15.2156L1.34583 18.123C1.29672 18.2899 1.29349 18.467 1.33647 18.6356C1.37946 18.8042 1.46708 18.9581 1.59012 19.0811C1.71316 19.2042 1.86707 19.2918 2.03568 19.3348C2.20429 19.3778 2.38136 19.3745 2.54829 19.3254L5.45569 18.4701C6.95031 19.3744 8.66439 19.8514 10.4113 19.849C15.7073 19.849 20.0003 15.556 20.0003 10.2599C20.0003 4.96391 15.7073 0.670898 10.4113 0.670898ZM8.24227 12.4299C10.1821 14.3688 12.0338 14.6249 12.6877 14.6488C13.6821 14.6853 14.6506 13.9258 15.0275 13.0446C15.075 12.935 15.0923 12.8146 15.0775 12.696C15.0626 12.5774 15.0162 12.465 14.9431 12.3705C14.4176 11.6993 13.7071 11.2169 13.0128 10.7375C12.8679 10.6373 12.6897 10.597 12.5158 10.6253C12.3418 10.6535 12.1856 10.748 12.0798 10.889L11.5045 11.7664C11.4742 11.8135 11.4271 11.8474 11.3727 11.8609C11.3183 11.8745 11.2608 11.8667 11.212 11.8393C10.8217 11.6158 10.2531 11.2361 9.84459 10.8276C9.4361 10.4191 9.07939 9.87638 8.87898 9.51104C8.85413 9.46462 8.84695 9.41077 8.85876 9.35946C8.87057 9.30816 8.90058 9.26287 8.94322 9.232L9.82925 8.57419C9.9557 8.46424 10.0373 8.31164 10.0585 8.14543C10.0797 7.97921 10.0391 7.811 9.94432 7.67282C9.51473 7.04378 9.01418 6.24405 8.28829 5.71378C8.19461 5.64589 8.08487 5.60356 7.96987 5.59095C7.85487 5.57834 7.73857 5.59588 7.6324 5.64186C6.75021 6.01967 5.98692 6.98816 6.02336 7.98446C6.04733 8.63843 6.30336 10.4901 8.24227 12.4299Z" fill="black"/>
<path fill-rule="evenodd" clip-rule="evenodd" d="M10.4113 0.670898C5.11528 0.670898 0.822266 4.96391 0.822266 10.2599C0.822266 12.0723 1.32569 13.7695 2.20117 15.2156L1.34583 18.123C1.29672 18.2899 1.29349 18.467 1.33647 18.6356C1.37946 18.8042 1.46708 18.9581 1.59012 19.0811C1.71316 19.2042 1.86707 19.2918 2.03568 19.3348C2.20429 19.3778 2.38136 19.3745 2.54829 19.3254L5.45569 18.4701C6.95031 19.3744 8.66439 19.8514 10.4113 19.849C15.7073 19.849 20.0003 15.556 20.0003 10.2599C20.0003 4.96391 15.7073 0.670898 10.4113 0.670898ZM8.24227 12.4299C10.1821 14.3688 12.0338 14.6249 12.6877 14.6488C13.6821 14.6853 14.6506 13.9258 15.0275 13.0446C15.075 12.935 15.0923 12.8146 15.0775 12.696C15.0626 12.5774 15.0162 12.465 14.9431 12.3705C14.4176 11.6993 13.7071 11.2169 13.0128 10.7375C12.8679 10.6373 12.6897 10.597 12.5158 10.6253C12.3418 10.6535 12.1856 10.748 12.0798 10.889L11.5045 11.7664C11.4742 11.8135 11.4271 11.8474 11.3727 11.8609C11.3183 11.8745 11.2608 11.8667 11.212 11.8393C10.8217 11.6158 10.2531 11.2361 9.84459 10.8276C9.4361 10.4191 9.07939 9.87638 8.87898 9.51104C8.85413 9.46462 8.84695 9.41077 8.85876 9.35946C8.87057 9.30816 8.90058 9.26287 8.94322 9.232L9.82925 8.57419C9.9557 8.46424 10.0373 8.31164 10.0585 8.14543C10.0797 7.97921 10.0391 7.811 9.94432 7.67282C9.51473 7.04378 9.01418 6.24405 8.28829 5.71378C8.19461 5.64589 8.08487 5.60356 7.96987 5.59095C7.85487 5.57834 7.73857 5.59588 7.6324 5.64186C6.75021 6.01967 5.98692 6.98816 6.02336 7.98446C6.04733 8.63843 6.30336 10.4901 8.24227 12.4299Z" fill="white"/>
</svg>
